<svg width="442" height="209" viewBox="0 0 442 209" fill="none" xmlns="http://www.w3.org/2000/svg">
<g clip-path="url(#clip0_215_271)">
<path d="M132.235 192.516H84.1498L60.107 156.419H88.0768C77.9254 135.042 59.0518 118.624 36.0642 111.779V192.516H0V72.7816C3.9537 72.3939 7.96084 72.1934 12.0214 72.1934C20.2627 72.1934 28.3037 73.0222 36.0642 74.5998C90.9352 85.7497 132.235 134.293 132.235 192.516Z" fill="#F3354E"/>
<path d="M120.214 60.5222V116.419C100.686 88.6375 70.7392 68.7175 36.0642 62.3537C28.2636 60.9099 20.236 60.1612 12.0214 60.1612C7.97419 60.1612 3.9537 60.3484 0 60.7093V0H47.6582C87.7295 0 120.214 27.0993 120.214 60.5222Z" fill="white"/>
<path d="M160.48 51.2737H190.987C200.845 51.2737 207.671 53.8539 211.998 58.2791C215.778 61.969 217.715 66.9557 217.715 73.3194V73.5066C217.715 83.373 212.466 89.9239 204.438 93.333L219.825 115.847H199.175L186.179 96.2876H178.338V115.847H160.453V51.2737H160.48ZM190.159 82.2634C196.237 82.2634 199.75 79.3088 199.75 74.6029V74.4157C199.75 69.3354 196.063 66.7552 190.066 66.7552H178.365V82.25H190.159V82.2634Z" fill="white"/>
<path d="M226.639 51.2737H257.147C267.005 51.2737 273.83 53.8539 278.158 58.2791C281.938 61.969 283.875 66.9557 283.875 73.3194V73.5066C283.875 83.373 278.625 89.9239 270.598 93.333L285.985 115.847H265.335L252.339 96.2876H244.498V115.847H226.613V51.2737H226.639ZM256.319 82.2634C262.396 82.2634 265.909 79.3088 265.909 74.6029V74.4157C265.909 69.3354 262.223 66.7552 256.225 66.7552H244.525V82.25H256.319V82.2634Z" fill="white"/>
<path d="M316.572 50.8042H333.803L361.265 115.845H342.098L337.396 104.321H312.512L307.904 115.845H289.097L316.559 50.8042H316.572ZM332.24 90.3769L325.054 72.021L317.775 90.3769H332.24Z" fill="white"/>
<path d="M158.278 162.144V161.956C158.278 143.133 173.025 128.373 193.02 128.373C204.36 128.373 212.375 131.876 219.2 137.785L208.688 150.419C204.08 146.542 199.472 144.336 193.114 144.336C183.804 144.336 176.618 152.17 176.618 162.05V162.237C176.618 172.665 183.897 180.138 194.129 180.138C198.456 180.138 201.782 179.216 204.454 177.465V169.63H191.738V156.528H221.417V185.593C214.592 191.221 205.108 195.553 193.394 195.553C173.305 195.553 158.278 181.716 158.278 162.157V162.144Z" fill="white"/>
<path d="M230.956 144.334H248.467V154.388C251.326 147.556 255.934 143.131 264.229 143.505V161.955H262.76C253.637 161.955 248.467 167.209 248.467 178.747V194.241H230.956V144.334Z" fill="white"/>
<path d="M267.181 169.522V169.335C267.181 155.123 278.788 143.225 294.83 143.225C310.872 143.225 322.292 154.936 322.292 169.147V169.335C322.292 183.546 310.685 195.445 294.643 195.445C278.601 195.445 267.181 183.733 267.181 169.522ZM305.249 169.522V169.335C305.249 163.252 300.827 158.078 294.656 158.078C288.486 158.078 284.238 163.158 284.238 169.147V169.335C284.238 175.418 288.659 180.591 294.843 180.591C301.028 180.591 305.262 175.524 305.262 169.522H305.249Z" fill="white"/>
<path d="M328.611 176.995V144.334H346.122V171.366C346.122 176.808 348.98 179.762 353.215 179.762C357.449 179.762 360.494 176.808 360.494 171.366V144.334H378.005V194.241H360.494V187.409C357.262 191.554 352.654 195.337 345.561 195.337C334.955 195.337 328.597 188.332 328.597 176.981L328.611 176.995Z" fill="white"/>
<path d="M387.246 144.334H404.757V150.979C408.164 146.834 412.411 143.225 419.878 143.225C431.766 143.225 441.997 153.091 441.997 169.054V169.241C441.997 185.471 431.766 195.351 419.971 195.351C412.411 195.351 407.99 191.942 404.771 188.158V209.001H387.26V144.334H387.246ZM424.753 169.335V169.147C424.753 162.597 420.238 157.891 414.522 157.891C408.805 157.891 404.383 162.597 404.383 169.147V169.335C404.383 175.979 408.898 180.685 414.522 180.685C420.145 180.685 424.753 176.073 424.753 169.335Z" fill="white"/>
</g>
<defs>
<clipPath id="clip0_215_271">
<rect width="442" height="209" fill="white"/>
</clipPath>
</defs>
</svg>
