<svg width="127" height="60" viewBox="0 0 127 60" fill="none" xmlns="http://www.w3.org/2000/svg">
<g clip-path="url(#clip0_215_71)">
<path d="M37.9952 55.2679H24.1788L17.2706 44.9052H25.3071C22.3903 38.7682 16.9674 34.0551 10.3623 32.09V55.2679H0V20.8945C1.13602 20.7832 2.28739 20.7256 3.45411 20.7256C5.8221 20.7256 8.13251 20.9635 10.3623 21.4164C26.1284 24.6174 37.9952 38.5533 37.9952 55.2679Z" fill="#F3354E"/>
<path d="M34.5411 17.3748V33.4216C28.9301 25.4462 20.3255 19.7275 10.3623 17.9006C8.121 17.4861 5.81442 17.2712 3.45411 17.2712C2.29123 17.2712 1.13602 17.3249 0 17.4285V0H13.6936C25.2073 0 34.5411 7.7797 34.5411 17.3748Z" fill="white"/>
<path d="M46.1112 14.7197H54.877C57.7093 14.7197 59.6705 15.4605 60.914 16.7309C62.0001 17.7902 62.5566 19.2217 62.5566 21.0486V21.1024C62.5566 23.9348 61.0483 25.8155 58.7417 26.7942L63.163 33.2574H57.2296L53.4953 27.6424H51.2425V33.2574H46.1035V14.7197H46.1112ZM54.639 23.6163C56.3853 23.6163 57.3946 22.7681 57.3946 21.4171V21.3634C57.3946 19.9049 56.3354 19.1642 54.6121 19.1642H51.2501V23.6125H54.639V23.6163Z" fill="white"/>
<path d="M65.121 14.7197H73.8867C76.7191 14.7197 78.6803 15.4605 79.9237 16.7309C81.0099 17.7902 81.5664 19.2217 81.5664 21.0486V21.1024C81.5664 23.9348 80.0581 25.8155 77.7515 26.7942L82.1728 33.2574H76.2394L72.5051 27.6424H70.2522V33.2574H65.1133V14.7197H65.121ZM73.6488 23.6163C75.395 23.6163 76.4044 22.7681 76.4044 21.4171V21.3634C76.4044 19.9049 75.3451 19.1642 73.6219 19.1642H70.2599V23.6125H73.6488V23.6163Z" fill="white"/>
<path d="M90.961 14.585H95.9119L103.803 33.257H98.2952L96.9443 29.9486H89.7942L88.4702 33.257H83.0664L90.9571 14.585H90.961ZM95.4628 25.9455L93.398 20.6759L91.3064 25.9455H95.4628Z" fill="white"/>
<path d="M45.4785 46.5484V46.4947C45.4785 41.0907 49.7156 36.8535 55.4609 36.8535C58.7193 36.8535 61.022 37.8591 62.9832 39.5555L59.9628 43.1824C58.6387 42.0694 57.3146 41.4361 55.4878 41.4361C52.8127 41.4361 50.748 43.6852 50.748 46.5215V46.5753C50.748 49.5689 52.8396 51.7144 55.7794 51.7144C57.0229 51.7144 57.9786 51.4496 58.7461 50.9468V48.6977H55.0925V44.9364H63.6203V53.2803C61.6591 54.8961 58.9342 56.1396 55.5684 56.1396C49.7962 56.1396 45.4785 52.1673 45.4785 46.5522V46.5484Z" fill="white"/>
<path d="M66.3613 41.4357H71.3928V44.3219C72.2141 42.3607 73.5382 41.0903 75.9215 41.1977V46.4942H75.4994C72.8781 46.4942 71.3928 48.0026 71.3928 51.3148V55.7631H66.3613V41.4357Z" fill="white"/>
<path d="M76.7695 48.6666V48.6129C76.7695 44.533 80.1047 41.1172 84.714 41.1172C89.3233 41.1172 92.6047 44.4793 92.6047 48.5591V48.6129C92.6047 52.6927 89.2696 56.1086 84.6603 56.1086C80.0509 56.1086 76.7695 52.7464 76.7695 48.6666ZM87.7076 48.6666V48.6129C87.7076 46.8666 86.4372 45.3812 84.6641 45.3812C82.891 45.3812 81.6705 46.8397 81.6705 48.5591V48.6129C81.6705 50.3592 82.9409 51.8445 84.7178 51.8445C86.4948 51.8445 87.7114 50.3899 87.7114 48.6666H87.7076Z" fill="white"/>
<path d="M94.4199 50.8119V41.4355H99.4513V49.1961C99.4513 50.7581 100.273 51.6063 101.489 51.6063C102.706 51.6063 103.581 50.7581 103.581 49.1961V41.4355H108.612V55.7629H103.581V53.8017C102.652 54.9915 101.328 56.0777 99.2901 56.0777C96.2429 56.0777 94.416 54.0665 94.416 50.808L94.4199 50.8119Z" fill="white"/>
<path d="M111.268 41.4357H116.299V43.3432C117.278 42.1535 118.498 41.1172 120.644 41.1172C124.059 41.1172 126.999 43.9497 126.999 48.5323V48.586C126.999 53.2454 124.059 56.0817 120.67 56.0817C118.498 56.0817 117.228 55.103 116.303 54.0168V60.0003H111.271V41.4357H111.268ZM122.044 48.6129V48.5591C122.044 46.6785 120.747 45.3275 119.105 45.3275C117.462 45.3275 116.192 46.6785 116.192 48.5591V48.6129C116.192 50.5204 117.489 51.8714 119.105 51.8714C120.72 51.8714 122.044 50.5472 122.044 48.6129Z" fill="white"/>
</g>
<defs>
<clipPath id="clip0_215_71">
<rect width="127" height="60" fill="white"/>
</clipPath>
</defs>
</svg>
